698 bytes → 676 bytes 96.85%
<svg xmlns="http://www.w3.org/2000/svg" width="51" height="98" fill="none">
  <path fill="#050505" stroke="#000" d="M15.83 7L3.82 10.198l.693 2.17c-1.108 0-1.385 1.066-1.385 1.599 5.83 14.505 3.233 29.124.577 37.176-.197.599-.37 1.125-.52 1.588-.244.754-.25 1.565 0 2.181l12.067 39.176c.809 2.57 3.041 2.912 4.562 2.912l28.522-7.595c.866-.457 2.02-2.513 1.559-3.883-.462-1.371-10.047-39.461-10.047-39.461-.635-2.342-2.174-3.826-3.117-4.626-7.737-5.254-17.495-21.643-19.112-31.58-.057-.21-.334-.628-.981-.628-.139 0-.212-.114-.231-.171L15.83 7z"/>
  <path fill="#FF962B" stroke="#000" d="M43 81.394L22.246 87c-2.985-6.723-9.162-20.69-10-22.77-.837-2.08.66-3.063 1.512-3.295l3.488-.982c-.29-1.56.058-6.762 5.349-9.131 6.557-2.728 10.793 1.984 12.092 4.681.368-.096 1.558-.416 3.372-.925 1.813-.508 2.732.944 2.964 1.734L43 81.394z"/>
  <path fill="#FF962B" d="M13.3.083c1.718-.453 2.393 1.057 2.515 1.869l1.166 4.077c.061.415.012 1.37-.675 1.868-.859.623-11.593 2.831-12.697 3.058-.883.181-1.594-.227-1.84-.453C1.32 9.142.346 6.13.052 4.952-.243 3.776.788 3.217 1.34 3.085 4.61 2.273 11.583.536 13.3.084z"/>
  <path fill="#0A0909" fill-opacity=".2" d="M8.387 6.421A3.592 3.592 0 0010.885 2l-6.92 1.924a3.592 3.592 0 004.422 2.498z"/>
</svg>