790 bytes → 785 bytes 99.37%
<svg width="293" height="589" fill="none"
  xmlns="http://www.w3.org/2000/svg">
  <path d="M89.582 45.733l-71.29 19.26 4.113 13.068c-6.58 0-8.225 6.42-8.225 9.63 34.616 87.352 19.193 175.393 3.427 223.884a2047.925 2047.925 0 00-3.085 9.558c-1.451 4.542-1.48 9.426 0 13.14l71.633 235.921c4.798 15.476 18.05 17.539 27.076 17.539l169.312-45.739c5.141-2.752 11.996-15.132 9.254-23.386-2.742-8.254-59.636-237.641-59.636-237.641-3.77-14.1-12.91-23.042-18.508-27.857-45.927-31.639-103.85-130.341-113.446-190.181-.343-1.261-1.988-3.783-5.827-3.783-.822 0-1.256-.688-1.37-1.032l-3.428-12.38z" fill="#050505" stroke="#000"/>
  <path d="M243.423 504.401l-122.518 33.332c-17.617-39.975-54.086-123.02-59.028-135.39-4.942-12.371 3.89-18.213 8.923-19.587l20.591-5.842c-1.716-9.278.343-40.205 31.573-54.294 38.712-16.219 63.719 11.798 71.383 27.834 2.174-.572 9.198-2.474 19.905-5.498s16.13 5.613 17.503 10.309l11.668 149.136z" fill="#FF962B" stroke="#000"/>
  <path d="M74.749 1.24c9.597-2.76 13.368 6.437 14.053 11.38l6.512 24.833c.343 2.53.07 8.346-3.77 11.381-4.798 3.794-64.781 17.245-70.951 18.624-4.936 1.104-8.912-1.38-10.283-2.759C7.796 56.422 2.358 38.074.713 30.9-.933 23.726 4.826 20.323 7.91 19.519c18.28-4.944 57.24-15.52 66.838-18.28z" fill="#FF962B"/>
  <path d="M51.014 41.014C62.327 37.408 68.575 25.314 64.969 14L24 27.059c3.606 11.313 15.7 17.561 27.014 13.955z" fill="#0A0909" fill-opacity=".2"/>
</svg>